<mxfile host="app.diagrams.net" modified="2024-01-17T16:15:44.903Z" agent="Mozilla/5.0 (Windows NT 10.0; Win64; x64) AppleWebKit/537.36 (KHTML, like Gecko) Chrome/120.0.0.0 Safari/537.36" etag="2ygauw-PSPatiJqM74uS" version="22.1.21" type="github">
  <diagram name="Trang-1" id="JJHgZIeuQZq6eKKOnWax">
    <mxGraphModel dx="2284" dy="746" grid="0" gridSize="10" guides="1" tooltips="1" connect="1" arrows="1" fold="1" page="1" pageScale="1" pageWidth="850" pageHeight="1100" math="0" shadow="0">
      <root>
        <mxCell id="0" />
        <mxCell id="1" parent="0" />
        <mxCell id="Ui-XKqf0fdpRQlFM5jlD-3" value="" style="ellipse;whiteSpace=wrap;html=1;fillColor=#99FF99;" vertex="1" parent="1">
          <mxGeometry x="-344" y="538" width="120" height="80" as="geometry" />
        </mxCell>
      </root>
    </mxGraphModel>
  </diagram>
</mxfile>
